<?xml version="1.0" encoding="UTF-8"?>
<svg version="1.1" xmlns="http://www.w3.org/2000/svg" width="1080" height="1080">
<path d="M0 0 C356.4 0 712.8 0 1080 0 C1080 356.4 1080 712.8 1080 1080 C723.6 1080 367.2 1080 0 1080 C0 723.6 0 367.2 0 0 Z " fill="#FEFEFE" transform="translate(0,0)"/>
<path d="M0 0 C14.51020145 8.01994568 19.49296401 23.25505499 24.67578125 38.078125 C25.13098407 39.35825373 25.58704864 40.6380763 26.04389954 41.9176178 C27.00777833 44.6219653 27.96643737 47.32807757 28.92071533 50.03582764 C30.43440413 54.33011516 31.9606874 58.61985598 33.48974609 62.90869141 C33.8751676 63.98983845 33.8751676 63.98983845 34.2683754 65.09282684 C34.78778013 66.54971097 35.30722872 68.00657947 35.82672119 69.46343231 C36.60541625 71.64829019 37.38301796 73.83353464 38.16040039 76.01885986 C42.59553748 88.4800315 47.13524878 100.90123824 51.71875 113.30859375 C58.18240677 130.826043 64.56403072 148.3718238 70.90625 165.93359375 C77.85338218 185.16960072 84.87502563 204.37618427 91.96875 223.55859375 C99.70726236 244.4858269 107.30004982 265.46167188 114.8220253 286.46735764 C121.83670234 306.05500001 128.93748166 325.60745662 136.15625 345.12109375 C144.51236232 367.71120786 152.75726361 390.33930478 160.87768555 413.01513672 C164.79431854 423.94665004 168.72562286 434.86622215 172.8671875 445.71484375 C173.78686015 448.15099261 174.70484799 450.58776932 175.62231445 453.02474976 C176.4266204 455.13553088 177.25794137 457.23401622 178.09179688 459.33325195 C182.15645856 469.92642703 184.15547901 482.53808909 179.69140625 493.41796875 C175.52247566 501.07337154 170.21473708 506.26210608 162.59375 510.43359375 C161.70816406 510.9440625 161.70816406 510.9440625 160.8046875 511.46484375 C153.23533717 515.06612056 142.93925692 514.89181755 135.1015625 512.26171875 C132.11528156 510.81698433 129.36385567 509.25568837 126.59375 507.43359375 C125.96855469 507.02753906 125.34335937 506.62148438 124.69921875 506.203125 C117.38656586 500.77880273 114.37223649 491.87942802 111.46875 483.625 C110.8998127 482.04519348 110.8998127 482.04519348 110.31938171 480.43347168 C109.49956289 478.1538981 108.68396646 475.87280245 107.87216187 473.59036255 C105.88717044 468.00953767 103.87728264 462.43767739 101.87061119 456.86462212 C101.1708902 454.92000085 100.47238193 452.9749475 99.77412415 451.02980042 C95.44818926 438.9859192 91.01682945 426.98180854 86.57177734 414.98141479 C78.37099919 392.83361234 70.32701914 370.63354801 62.36523056 348.39909744 C55.37312426 328.87350837 48.2927608 309.3841438 41.09375 289.93359375 C33.58307255 269.64052108 26.2038683 249.30395387 18.90625 228.93359375 C12.16440783 210.11554411 5.38483211 191.31354775 -1.53125 172.55859375 C-8.92556593 152.50657454 -16.23575131 132.42513378 -23.47387695 112.31616211 C-27.88885903 100.06335475 -32.36439265 87.83829499 -36.9609375 75.65234375 C-38.28861696 72.10862156 -39.61460966 68.56427325 -40.93997192 65.01968384 C-41.78156059 62.78300575 -42.6307121 60.54915631 -43.48800659 58.31845093 C-53.83318574 31.39419917 -53.83318574 31.39419917 -48.40625 19.18359375 C-43.29721276 8.3962672 -36.31990189 2.96073824 -25.40625 -1.56640625 C-17.34977463 -4.25189804 -7.74253062 -3.29057551 0 0 Z " fill="#545454" transform="translate(601.40625,307.56640625)"/>
<path d="M0 0 C8.82117335 6.74637074 13.88585944 14.99181947 15.40307617 25.8972168 C16.20198102 39.1779258 10.9999863 50.60572228 6.3125 62.8125 C5.40539548 65.22939635 4.50098928 67.64730694 3.59912109 70.06616211 C2.1876907 73.84828485 0.77494284 77.62978723 -0.64990234 81.40687561 C-5.40448817 94.01322325 -9.97932564 106.68150284 -14.54116821 119.35873413 C-20.89315228 136.99683665 -27.30485054 154.61228626 -33.81192017 172.19372559 C-39.76470477 188.28362879 -45.58644921 204.42046863 -51.41461182 220.55584717 C-57.99588096 238.77248741 -64.65676441 256.95834093 -71.375 275.125 C-78.90192237 295.48212475 -86.30225862 315.88129852 -93.625 336.3125 C-107.32437616 374.53060547 -121.28239828 412.65220847 -135.3125 450.75 C-135.75756897 451.95864716 -136.20263794 453.16729431 -136.66119385 454.41256714 C-139.08908643 461.00402158 -141.52178096 467.59366956 -143.95968628 474.181427 C-144.92398139 476.79403906 -145.88118005 479.40912628 -146.83618164 482.02514648 C-147.36721081 483.46863855 -147.89836768 484.91208364 -148.4296875 486.35546875 C-148.86651855 487.55067139 -149.30334961 488.74587402 -149.75341797 489.97729492 C-153.45340573 498.94900438 -160.8048365 505.80032563 -169.5625 509.9375 C-178.10443539 512.67639712 -189.62716425 512.31525776 -197.69140625 508.453125 C-206.89526966 502.65983026 -212.3002768 495.68502887 -216.3125 485.75 C-218.17359011 475.59859938 -216.97497032 467.01602428 -213.21484375 457.51171875 C-212.81161392 456.43992874 -212.40838409 455.36813873 -211.99293518 454.26387024 C-211.11851969 451.94655384 -210.23448905 449.63284706 -209.34179688 447.32250977 C-207.90281803 443.59772604 -206.48801727 439.86427106 -205.08203125 436.12695312 C-204.59287203 434.82723734 -204.10370571 433.52752423 -203.61453247 432.22781372 C-203.36930973 431.57609318 -203.12408699 430.92437263 -202.87143326 430.25290298 C-202.11490031 428.24528314 -201.35560169 426.23872791 -200.59567261 424.23239136 C-195.54605876 410.88636075 -190.72916432 397.45983538 -185.93484497 384.02041626 C-183.5269424 377.27120485 -181.1087405 370.52568656 -178.6875 363.78125 C-178.32974078 362.78457778 -178.32974078 362.78457778 -177.9647541 361.76777077 C-172.47420585 346.47985774 -166.84641143 331.24319552 -161.20800781 316.00927734 C-154.19236077 297.04585101 -147.31600126 278.03578086 -140.5 259 C-132.73473541 237.31320298 -124.86214652 215.67080804 -116.87109375 194.06591797 C-110.8332556 177.73897278 -104.87291294 161.38697964 -99 145 C-91.7120006 124.66581523 -84.27819406 104.38784534 -76.77905273 84.13061523 C-72.49202928 72.5406006 -68.24416471 60.93938125 -64.1015625 49.296875 C-63.51976982 47.6668177 -63.51976982 47.6668177 -62.92622375 46.00382996 C-61.10599644 40.90378983 -59.29521127 35.80085891 -57.50366211 30.69067383 C-52.31588914 16.04152265 -47.58100425 3.93505811 -32.9921875 -3.23828125 C-22.09574024 -7.40456991 -9.98360069 -5.54788173 0 0 Z " fill="#545454" transform="translate(516,310)"/>
</svg>
